<?xml version="1.0" standalone="no"?>
<!DOCTYPE svg PUBLIC "-//W3C//DTD SVG 20010904//EN"
 "http://www.w3.org/TR/2001/REC-SVG-20010904/DTD/svg10.dtd">
<svg version="1.0" xmlns="http://www.w3.org/2000/svg"
 width="260.000000pt" height="81.000000pt" viewBox="0 0 260.000000 81.000000"
 preserveAspectRatio="xMidYMid meet">

<g transform="translate(0.000000,81.000000) scale(0.100000,-0.100000)"
fill="#000000" stroke="none">
<path d="M62 780 c-38 -23 -62 -72 -62 -126 0 -97 72 -354 141 -499 49 -105
79 -97 103 27 8 42 22 90 30 106 18 35 81 92 102 92 21 0 51 -73 59 -145 20
-177 46 -179 120 -10 18 42 35 79 38 81 3 3 32 -12 64 -34 120 -81 309 -167
462 -208 387 -106 784 -72 1116 93 141 71 284 180 338 258 l21 30 -25 -21
c-69 -62 -262 -168 -394 -217 -454 -170 -1025 -133 -1482 96 l-91 46 29 95
c74 249 52 356 -74 356 -56 0 -88 -13 -154 -63 -32 -24 -42 -39 -43 -59 0 -16
-5 -28 -11 -28 -6 0 -41 29 -77 64 -37 35 -77 68 -89 75 -33 17 -84 13 -121
-9z m439 -90 c25 0 29 4 29 26 0 31 23 28 28 -4 2 -13 11 -22 22 -22 10 0 20
-7 24 -15 4 -11 -1 -15 -19 -15 -21 0 -25 -5 -25 -30 0 -20 5 -30 15 -30 12 0
15 -17 15 -92 0 -98 -6 -138 -21 -138 -5 0 -9 52 -9 115 0 96 -3 115 -15 115
-12 0 -15 -18 -15 -106 0 -80 -3 -105 -12 -102 -9 3 -14 36 -16 106 -2 86 0
102 13 102 19 0 20 37 1 56 -11 11 -21 12 -41 4 -36 -14 -35 -15 -35 29 0 43
23 63 28 24 3 -18 9 -23 33 -23z m-324 15 c19 -13 21 -23 19 -102 l-1 -88 -60
0 -60 0 0 81 c0 67 4 86 19 103 22 25 53 27 83 6z m241 -27 c-4 -46 -28 -49
-28 -4 0 26 4 36 16 36 11 0 14 -8 12 -32z m-142 -37 c5 -5 26 -14 47 -21 36
-11 37 -13 37 -61 l0 -49 -55 0 -55 0 0 70 c0 67 5 80 26 61z m194 -121 c0
-91 -3 -110 -15 -110 -12 0 -15 18 -15 103 0 57 3 107 7 110 18 19 23 -2 23
-103z m-50 -9 c0 -79 -3 -100 -15 -105 -13 -5 -15 10 -15 99 0 87 3 105 15
105 12 0 15 -18 15 -99z m-83 -61 c17 0 23 -4 20 -14 -3 -7 -1 -18 5 -24 7 -7
3 -14 -12 -22 -12 -6 -39 -28 -61 -47 l-39 -35 0 70 c0 59 3 71 18 75 9 3 23
3 30 1 8 -2 25 -4 39 -4z m-138 -124 c1 -137 -3 -163 -25 -145 -14 12 -67 166
-79 232 l-7 37 55 0 55 0 1 -124z m324 38 c20 -13 37 -31 37 -39 0 -30 -59
-147 -72 -143 -7 3 -20 34 -29 71 -9 36 -26 82 -37 101 -14 24 -17 36 -9 39
22 8 72 -5 110 -29z"/>
<path d="M147 586 c-3 -8 -2 -18 3 -21 13 -8 20 9 11 24 -6 10 -10 9 -14 -3z"/>
<path d="M276 581 c-3 -5 1 -11 9 -15 15 -6 29 7 18 18 -9 9 -21 8 -27 -3z"/>
<path d="M276 391 c-3 -5 1 -11 9 -15 15 -6 29 7 18 18 -9 9 -21 8 -27 -3z"/>
<path d="M147 396 c-3 -8 -2 -18 3 -21 13 -8 20 9 11 24 -6 10 -10 9 -14 -3z"/>
<path d="M1935 790 c-10 -17 12 -37 25 -24 8 8 6 15 -4 23 -10 9 -16 9 -21 1z"/>
<path d="M1102 698 l3 -93 56 0 c32 0 63 6 73 14 20 17 21 70 1 77 -13 5 -13
9 -1 26 15 21 11 47 -8 60 -6 4 -37 8 -69 8 l-58 0 3 -92z m93 59 c25 -19 10
-37 -31 -37 -26 0 -34 4 -34 18 0 34 31 43 65 19z m15 -82 c18 -21 -4 -45 -42
-45 -16 0 -31 6 -34 15 -10 26 4 45 34 45 16 0 35 -7 42 -15z"/>
<path d="M1445 780 c-3 -5 -4 -14 -1 -19 3 -5 -1 -14 -10 -21 -12 -11 -12 -15
-2 -21 7 -5 12 -21 10 -37 -2 -15 2 -40 7 -56 9 -22 16 -27 38 -24 32 4 44 28
14 28 -18 0 -21 6 -21 45 0 33 4 45 15 45 8 0 15 5 15 10 0 6 -7 10 -15 10 -9
0 -15 9 -15 25 0 25 -23 35 -35 15z"/>
<path d="M1297 733 c-11 -10 -8 -43 3 -43 6 0 13 7 16 15 8 20 54 20 54 0 0
-8 -12 -17 -27 -20 -44 -10 -58 -20 -58 -45 0 -33 27 -47 65 -33 17 6 32 7 36
2 3 -5 9 -9 15 -9 13 0 11 114 -3 128 -13 13 -90 17 -101 5z m73 -82 c0 -25
-30 -36 -49 -17 -13 14 -12 16 10 25 35 14 39 13 39 -8z"/>
<path d="M1530 686 c0 -36 5 -60 16 -70 19 -19 45 -21 62 -4 10 10 15 10 21
-1 17 -28 31 1 31 65 0 57 -2 65 -17 62 -14 -2 -19 -16 -23 -53 -4 -42 -9 -51
-27 -53 -20 -3 -22 2 -25 50 -2 41 -7 54 -20 56 -15 3 -18 -5 -18 -52z"/>
<path d="M1692 671 c2 -51 6 -66 18 -66 11 0 16 14 18 53 2 37 8 55 19 59 22
8 33 -15 33 -69 0 -36 4 -48 15 -48 11 0 15 12 15 49 0 30 5 53 15 61 23 19
35 2 35 -50 0 -50 15 -74 31 -49 12 19 11 72 0 103 -10 24 -12 24 -106 24
l-96 -1 3 -66z"/>
<path d="M1932 673 c2 -52 6 -68 18 -68 12 0 15 14 15 65 0 54 -3 65 -18 68
-16 3 -18 -3 -15 -65z"/>
<path d="M764 517 c-3 -8 -4 -49 -2 -93 l3 -79 52 -3 c45 -3 56 1 78 22 19 19
25 35 25 71 0 66 -31 95 -100 95 -33 0 -52 -5 -56 -13z m104 -29 c16 -16 16
-90 0 -106 -7 -7 -25 -12 -40 -12 -28 0 -28 0 -28 65 0 65 0 65 28 65 15 0 33
-5 40 -12z"/>
<path d="M1284 513 c-3 -10 -9 -25 -14 -34 -5 -9 -5 -20 0 -25 5 -5 10 -31 12
-59 3 -48 4 -50 36 -53 18 -2 32 1 32 7 0 6 -6 11 -14 11 -17 0 -26 22 -26 61
0 19 5 29 15 29 8 0 15 7 15 15 0 8 -7 15 -15 15 -9 0 -15 9 -15 25 0 29 -18
34 -26 8z"/>
<path d="M1530 435 c0 -78 3 -95 15 -95 12 0 15 17 15 95 0 78 -3 95 -15 95
-12 0 -15 -17 -15 -95z"/>
<path d="M1627 510 c-47 -37 -44 -135 4 -160 45 -24 119 1 119 41 0 10 -4 19
-10 19 -5 0 -10 -4 -10 -10 0 -17 -48 -42 -68 -35 -47 14 -51 102 -6 132 22
14 26 14 49 -1 14 -9 25 -21 25 -26 0 -6 5 -10 10 -10 19 0 10 39 -12 54 -31
22 -70 20 -101 -4z"/>
<path d="M1794 517 c-10 -27 1 -170 14 -175 9 -3 12 20 12 92 0 59 -4 96 -10
96 -6 0 -13 -6 -16 -13z"/>
<path d="M1870 515 c0 -9 5 -15 11 -13 6 2 11 8 11 13 0 5 -5 11 -11 13 -6 2
-11 -4 -11 -13z"/>
<path d="M2106 523 c-11 -11 -6 -23 9 -23 8 0 15 4 15 9 0 13 -16 22 -24 14z"/>
<path d="M970 460 c-26 -26 -26 -81 -2 -103 23 -21 85 -22 102 -2 17 21 4 32
-20 17 -28 -17 -48 -15 -60 8 -10 19 -8 20 40 20 46 0 50 2 50 23 0 52 -71 76
-110 37z m70 -15 c17 -21 9 -27 -31 -23 -31 3 -32 4 -15 21 21 21 30 21 46 2z"/>
<path d="M1117 473 c-4 -3 -7 -35 -7 -70 0 -56 2 -64 18 -61 13 2 18 16 22 53
4 42 9 51 27 53 20 3 22 -2 25 -50 2 -41 7 -54 21 -56 14 -3 17 5 17 52 0 75
-29 103 -81 76 -13 -7 -19 -7 -19 0 0 11 -13 13 -23 3z"/>
<path d="M1388 469 c-10 -5 -18 -17 -18 -24 0 -19 5 -19 35 1 20 13 28 14 40
4 19 -16 10 -30 -19 -30 -13 0 -34 -9 -47 -19 -20 -16 -22 -23 -13 -38 9 -14
25 -18 71 -19 l59 -1 -4 56 c-2 31 -9 62 -14 69 -12 14 -66 15 -90 1z m62 -90
c-13 -23 -50 -26 -50 -4 0 16 39 36 53 28 4 -2 2 -13 -3 -24z"/>
<path d="M1870 410 c0 -48 4 -70 11 -68 7 2 11 30 11 68 0 38 -4 66 -11 68 -7
2 -11 -20 -11 -68z"/>
<path d="M1940 409 c0 -52 3 -70 13 -67 6 3 13 25 15 50 6 91 62 87 62 -4 0
-60 23 -63 28 -3 7 77 -21 110 -70 84 -16 -9 -23 -9 -26 0 -2 6 -8 11 -13 11
-5 0 -9 -32 -9 -71z"/>
<path d="M2106 473 c-3 -3 -6 -35 -6 -70 0 -49 3 -63 15 -63 12 0 15 14 15 64
0 60 -8 84 -24 69z"/>
<path d="M2192 464 c-28 -20 -31 -83 -4 -107 31 -28 102 -15 102 18 0 19 -14
19 -30 0 -35 -42 -86 14 -55 61 18 28 37 31 55 9 16 -19 30 -19 30 0 0 15 -37
35 -63 35 -7 0 -23 -7 -35 -16z"/>
<path d="M382 226 c-16 -35 -38 -42 -62 -21 -27 25 -25 2 3 -30 28 -33 52 -26
67 21 14 43 8 65 -8 30z"/>
</g>
</svg>
